<?xml version="1.0" encoding="utf-8"?>
<!-- Generator: Adobe Illustrator 27.8.1, SVG Export Plug-In . SVG Version: 6.00 Build 0)  -->
<svg version="1.1" id="Layer_1" xmlns="http://www.w3.org/2000/svg" xmlns:xlink="http://www.w3.org/1999/xlink" x="0px" y="0px"
	 viewBox="0 0 400 225" style="enable-background:new 0 0 400 225;" xml:space="preserve">
<style type="text/css">
	.st0{fill:none;}
</style>
<g>
	<g id="Layer_2_00000025420857896847875940000007123222534921666178_">
		<g id="drag_and_drop">
			<rect y="0" class="st0" width="400" height="225"/>
			<path d="M295.5,46.1c0,43.4,0,86.7,0,130c-0.1,0.1-0.2,0.3-0.3,0.5c-1.8,9.9-9,15.9-19.2,15.9c-51.2,0-102.3,0-153.5,0
				c-3.1,0-6.2-0.4-8.9-1.8c-7-3.8-10.5-9.6-10.5-17.6c0-29.9,0-59.7,0-89.6c0-11.5,0-23.1,0-34.5c0-7.9,3.7-13.8,10.7-17.4
				c2.9-1.5,6.1-1.8,9.3-1.8c14,0,28,0,42.1,0c36.7,0,73.5,0,110.3,0c6.8,0,12.3,2.3,16.5,7.7C294,39.9,294.9,43,295.5,46.1z
				 M140.1,88.9c5.7,0,11.5,0,17.3,0c3.7,0,4.9-1.2,4.9-4.8c0-6.7,0-13.4,0-20.1c0-3.6-1.2-4.7-4.8-4.7c-11.6,0-23.3,0-35,0
				c-3.4,0-4.7,1.3-4.7,4.8c0,6.7,0,13.4,0,20.1c0,3.5,1.3,4.7,4.8,4.7C128.5,88.9,134.3,88.9,140.1,88.9z M258.3,88.9
				c6,0,11.9,0,17.9,0c3.2,0,4.6-1.3,4.6-4.5c0.1-6.8,0.1-13.6,0-20.5c0-3.4-1.4-4.6-4.7-4.6c-11.7,0-23.4,0-35.1,0
				c-3.3,0-4.6,1.3-4.6,4.6c-0.1,6.8-0.1,13.6,0,20.5c0,3.4,1.3,4.6,4.7,4.6C246.8,88.9,252.6,88.9,258.3,88.9z M139.9,133.3
				c5.9,0,11.8,0,17.6,0c3.5,0,4.7-1.2,4.7-4.6c0.1-6.8,0.1-13.6,0-20.5c0-3.3-1.3-4.6-4.6-4.6c-11.8,0-23.5,0-35.3,0
				c-3.2,0-4.6,1.3-4.6,4.6c-0.1,6.8-0.1,13.6,0,20.5c0,3.3,1.3,4.5,4.6,4.5C128.3,133.3,134.1,133.3,139.9,133.3z M258.4,133.3
				c5.9,0,11.8,0,17.6,0c3.5,0,4.7-1.2,4.7-4.8c0-6.7,0-13.4,0-20.1c0-3.5-1.3-4.7-4.8-4.7c-11.6,0-23.3,0-35,0
				c-3.4,0-4.7,1.2-4.7,4.6c-0.1,6.8-0.1,13.6,0,20.5c0,3.3,1.3,4.5,4.6,4.5C246.8,133.3,252.6,133.3,258.4,133.3z M140,177.7
				c6,0,11.9,0,17.9,0c3.2,0,4.4-1.2,4.5-4.4c0.1-6.9,0.1-13.8,0-20.7c0-3.3-1.3-4.5-4.6-4.5c-11.8,0-23.5,0-35.3,0
				c-3.3,0-4.5,1.3-4.5,4.6c-0.1,6.8,0,13.5,0,20.2c0,3.5,1.2,4.7,4.8,4.7C128.5,177.7,134.2,177.7,140,177.7z M258.5,177.7
				c5.9,0,11.8,0,17.6,0c3.4,0,4.7-1.2,4.7-4.4c0.1-6.9,0.1-13.8,0-20.7c0-3.1-1.3-4.4-4.5-4.4c-11.8-0.1-23.7-0.1-35.5,0
				c-3.1,0-4.4,1.3-4.4,4.4c-0.1,6.9-0.1,13.8,0,20.7c0,3.2,1.3,4.4,4.4,4.4C246.7,177.7,252.6,177.7,258.5,177.7z M199.4,88.9
				c5.9,0,11.8,0,17.6,0c3.3,0,4.5-1.3,4.5-4.6c0-6.8,0-13.6,0-20.5c0-3.3-1.3-4.6-4.5-4.6c-11.8,0-23.5,0-35.3,0
				c-3.2,0-4.5,1.3-4.5,4.6c0,6.8,0,13.5,0,20.2c0,3.6,1.2,4.7,4.7,4.8C187.7,88.9,193.5,88.9,199.4,88.9z M199.4,177.7
				c5.9,0,11.8,0,17.6,0c3.3,0,4.5-1.2,4.5-4.6c0-6.8,0-13.5,0-20.2c0-3.4-1.2-4.7-4.6-4.7c-11.8,0-23.5,0-35.3,0
				c-3.3,0-4.5,1.3-4.5,4.6c0,6.8,0,13.5,0,20.2c0,3.6,1.2,4.7,4.8,4.7C187.7,177.7,193.5,177.7,199.4,177.7z M199.3,133.3
				c5.9,0,11.8,0,17.6,0c3.3,0,4.5-1.2,4.6-4.5c0-6.8,0-13.6,0-20.5c0-3.3-1.2-4.6-4.5-4.6c-11.8,0-23.5,0-35.3,0
				c-3.3,0-4.5,1.3-4.6,4.6c0,6.8,0,13.6,0,20.5c0,3.3,1.2,4.6,4.5,4.6C187.5,133.3,193.4,133.3,199.3,133.3z"/>
		</g>
	</g>
</g>
</svg>
